<?xml version="1.0" encoding="UTF-8" standalone="no"?>
<!-- Created with Inkscape (http://www.inkscape.org/) -->
<svg
   xmlns:dc="http://purl.org/dc/elements/1.1/"
   xmlns:cc="http://web.resource.org/cc/"
   xmlns:rdf="http://www.w3.org/1999/02/22-rdf-syntax-ns#"
   xmlns:svg="http://www.w3.org/2000/svg"
   xmlns="http://www.w3.org/2000/svg"
   xmlns:sodipodi="http://sodipodi.sourceforge.net/DTD/sodipodi-0.dtd"
   xmlns:inkscape="http://www.inkscape.org/namespaces/inkscape"
   width="358.70868"
   height="388.77698"
   id="svg2"
   sodipodi:version="0.32"
   inkscape:version="0.45.1"
   version="1.0"
   sodipodi:docbase="C:\Documents and Settings\Nevit\Belgelerim\Resimlerim"
   sodipodi:docname="bird-DSC03403-c-drawing.svg"
   inkscape:output_extension="org.inkscape.output.svg.inkscape">
  <defs
     id="defs4" />
  <sodipodi:namedview
     id="base"
     pagecolor="#ffffff"
     bordercolor="#666666"
     borderopacity="1.0"
     gridtolerance="10000"
     guidetolerance="10"
     objecttolerance="10"
     inkscape:pageopacity="0.0"
     inkscape:pageshadow="2"
     inkscape:zoom="0.96970763"
     inkscape:cx="179.35434"
     inkscape:cy="190.83278"
     inkscape:document-units="px"
     inkscape:current-layer="layer1"
     inkscape:window-width="760"
     inkscape:window-height="573"
     inkscape:window-x="44"
     inkscape:window-y="58" />
  <metadata
     id="metadata7">
    <rdf:RDF>
      <cc:Work
         rdf:about="">
        <dc:format>image/svg+xml</dc:format>
        <dc:type
           rdf:resource="http://purl.org/dc/dcmitype/StillImage" />
      </cc:Work>
    </rdf:RDF>
  </metadata>
  <g
     inkscape:label="Layer 1"
     inkscape:groupmode="layer"
     id="layer1"
     transform="translate(-213.92923,-287.95826)">
    <path
       style="fill:#000000"
       d="M 224.75571,673.52326 C 214.70582,669.46836 211.02407,663.6694 216.39287,660.35129 C 219.46406,658.45317 219.46349,657.11644 216.39068,655.21736 C 210.1816,651.37993 239.91991,621.79933 254.06536,617.74246 C 260.58718,615.87203 272.0915,614.34168 279.63052,614.34168 C 295.47094,614.34168 326.46788,608.17229 333.93928,603.53251 C 338.25013,600.85544 338.16922,599.0963 333.42365,592.32107 C 330.32784,587.90116 328.66552,580.95563 329.72961,576.88653 C 330.79371,572.81742 329.98868,565.85396 327.94067,561.41217 C 325.89265,556.97038 320.73905,545.84915 316.48821,536.69832 C 307.93792,518.292 299.42146,475.84819 303.08807,469.91546 C 304.3763,467.83107 303.87027,464.1188 301.96355,461.66598 C 300.05684,459.21317 299.17093,448.05549 299.99487,436.87115 C 300.8188,425.68681 301.52199,411.12868 301.5575,404.51975 C 301.59302,397.91082 303.24298,392.50352 305.22408,392.50352 C 307.34034,392.50352 307.82159,387.14912 306.39082,379.52243 C 304.88687,371.50571 305.62438,364.53052 308.31929,361.28335 C 311.72565,357.17894 311.34209,353.97882 306.57103,346.69726 C 299.54334,335.97165 301.87885,329.64937 312.86868,329.64937 C 319.36185,329.64937 320.1789,328.00765 318.31753,318.70082 C 314.83396,301.28295 320.88927,302.67989 335.87373,322.75098 C 350.82917,342.78319 357.03861,344.75992 347.58531,326.47926 C 340.45346,312.68779 340.39134,311.16285 346.96136,311.16285 C 349.81841,311.16285 356.54369,318.64989 361.90643,327.80072 C 367.26917,336.95154 372.19589,344.43858 372.8547,344.43858 C 373.51351,344.43858 371.69183,334.22007 368.80652,321.73078 C 359.13085,279.84885 364.4811,276.18676 378.84436,314.86016 C 386.0192,334.17856 393.05825,349.15264 394.4867,348.13588 C 399.30339,344.7074 408.03969,361.82749 415.67448,389.65651 C 419.84847,404.87083 426.38007,423.79789 430.18915,431.71665 C 433.99824,439.63542 442.49559,466.49579 449.07216,491.40637 L 461.02957,536.69832 L 473.31357,536.69832 C 480.06977,536.69832 493.99796,534.89678 504.26511,532.69485 C 519.26518,529.4779 526.01993,529.79073 538.64714,534.28709 C 547.29011,537.36473 559.00508,540.87883 564.68044,542.09624 C 576.47647,544.6266 574.7262,551.48754 562.28466,551.48754 C 557.73151,551.48754 540.42861,558.14268 523.83379,566.27675 C 507.23896,574.41081 492.31436,581.06596 490.66802,581.06596 C 489.02166,581.06596 479.38621,587.92926 469.2559,596.31778 C 459.1256,604.70629 441.86638,615.82737 430.90208,621.03132 C 419.93779,626.23524 410.21623,633.36397 409.29862,636.87294 C 407.19456,644.91886 377.81548,647.9404 350.61636,642.90819 C 332.31312,639.52187 330.57689,639.99231 293.79528,658.30546 C 256.30072,676.97359 241.43072,680.25124 224.75571,673.52326 z "
       id="path2170"
       sodipodi:nodetypes="cssssssssssssssssssssssssssssscccsssssssssssc" />
  </g>
</svg>
